<?xml version="1.0" standalone="no"?>
<!DOCTYPE svg PUBLIC "-//W3C//DTD SVG 20010904//EN"
 "http://www.w3.org/TR/2001/REC-SVG-20010904/DTD/svg10.dtd">
<svg version="1.0" xmlns="http://www.w3.org/2000/svg"
 width="190" height="80" viewBox="0 0 3698.000000 2013.000000"
 preserveAspectRatio="xMidYMid meet">

<g transform="translate(0.000000,2013.000000) scale(0.100000,-0.100000)"
fill="#000000" stroke="none">
<path d="M17725 15968 c-27 -235 -174 -449 -379 -552 l-66 -33 58 -7 c244 -29
452 -170 556 -377 l34 -67 6 57 c29 249 175 459 389 561 l58 28 -63 7 c-239
26 -465 185 -562 396 l-24 50 -7 -63z"/>
<path d="M21795 15572 c-129 -140 -305 -223 -503 -239 -69 -5 -195 7 -236 23
-8 3 24 -34 73 -83 54 -54 102 -114 125 -154 97 -175 124 -369 80 -557 -6 -22
4 -16 51 36 178 195 447 287 699 238 l68 -13 -61 54 c-157 140 -251 349 -251
559 0 51 5 116 11 144 6 28 9 53 7 54 -1 2 -30 -26 -63 -62z"/>
<path d="M24440 15022 c0 -70 -29 -192 -64 -267 -67 -142 -172 -254 -307 -325
l-71 -37 70 -6 c148 -14 299 -81 406 -179 67 -61 148 -171 168 -230 11 -32 12
-30 25 61 34 235 159 419 358 527 l76 41 -61 6 c-254 27 -467 173 -571 392
l-29 60 0 -43z"/>
<path d="M18835 14703 c-36 -71 -168 -205 -247 -251 -102 -60 -251 -101 -373
-102 l-50 -1 30 -16 c105 -57 223 -176 278 -281 56 -106 78 -186 84 -299 l6
-101 47 71 c54 82 151 177 232 225 102 60 253 102 373 102 l50 0 -55 31 c-86
49 -208 179 -257 274 -57 111 -74 173 -81 298 l-7 107 -30 -57z"/>
<path d="M27700 14034 c-69 -300 -210 -592 -397 -824 -131 -162 -357 -359
-529 -463 -171 -103 -431 -205 -617 -244 l-85 -17 149 -37 c358 -90 644 -249
908 -504 297 -287 466 -587 572 -1010 15 -60 27 -99 28 -85 2 52 62 265 106
378 245 627 798 1098 1453 1238 l83 18 -128 32 c-251 63 -446 147 -648 282
-429 286 -737 733 -849 1234 l-23 101 -23 -99z"/>
<path d="M14997 14012 c-8 -108 -43 -223 -94 -312 -49 -84 -181 -216 -258
-257 l-60 -32 53 -1 c29 0 88 -7 130 -16 203 -41 366 -156 473 -333 l36 -60 6
87 c7 105 42 222 94 312 49 84 171 207 251 252 l63 35 -88 6 c-103 7 -200 35
-298 85 -88 46 -227 181 -271 265 l-31 58 -6 -89z"/>
<path d="M16150 12685 c0 -1 10 -37 21 -81 32 -120 30 -290 -5 -407 -42 -141
-96 -236 -193 -337 l-52 -56 87 23 c168 43 369 25 526 -46 83 -37 146 -81 220
-150 47 -45 57 -51 51 -31 -63 202 -58 388 17 568 37 89 92 174 162 247 29 31
45 53 37 50 -9 -4 -52 -16 -96 -27 -106 -27 -294 -22 -400 12 -128 41 -230
100 -323 187 -28 27 -52 48 -52 48z"/>
<path d="M10315 9893 c-348 -10 -687 -92 -970 -233 -183 -92 -304 -178 -445
-320 -298 -297 -450 -676 -450 -1120 0 -570 253 -1044 717 -1347 185 -121 447
-226 688 -276 210 -44 296 -52 565 -52 269 0 355 8 565 52 864 180 1404 801
1405 1616 0 657 -337 1185 -938 1469 -317 150 -711 223 -1137 211z m449 -788
c419 -62 632 -230 723 -572 24 -90 26 -115 27 -303 1 -163 -3 -222 -17 -290
-75 -347 -282 -530 -688 -607 -77 -14 -148 -18 -389 -18 -241 0 -312 4 -389
18 -232 44 -376 112 -496 232 -146 145 -203 308 -212 601 -6 190 9 316 51 442
106 312 360 470 818 512 140 12 441 4 572 -15z"/>
<path d="M31310 9889 c-710 -38 -1196 -322 -1356 -793 -57 -165 -74 -416 -40
-576 41 -195 170 -358 361 -457 247 -127 488 -167 1090 -183 388 -10 535 -25
663 -65 129 -41 184 -91 198 -182 20 -135 -82 -229 -299 -274 -126 -26 -385
-43 -543 -35 -355 16 -796 142 -1369 392 -6 2 -90 -155 -187 -350 l-177 -354
121 -57 c416 -196 907 -340 1358 -397 140 -17 585 -17 705 0 663 98 1084 407
1182 867 22 104 13 364 -16 465 -112 382 -450 619 -991 695 -73 11 -243 20
-470 25 -531 13 -716 44 -799 134 -31 33 -40 110 -18 153 70 134 331 214 702
214 193 0 345 -17 545 -62 148 -34 408 -117 539 -173 47 -20 85 -35 86 -33 1
1 34 81 73 177 39 96 105 257 146 357 l74 182 -116 59 c-396 202 -925 300
-1462 271z"/>
<path d="M3850 8220 l0 -1630 425 0 425 0 0 420 0 420 681 0 c741 0 805 4 973
57 458 144 744 564 763 1119 9 235 -30 421 -128 616 -57 114 -109 188 -196
279 -159 166 -363 271 -633 325 -76 16 -201 18 -1197 21 l-1113 4 0 -1631z
m2089 880 c245 -28 382 -204 382 -488 0 -154 -45 -267 -138 -352 -97 -89 -57
-84 -815 -88 l-668 -3 0 471 0 470 578 0 c317 0 615 -4 661 -10z"/>
<path d="M13880 8220 l0 -1630 1345 0 1345 0 0 370 0 370 -922 2 -923 3 -3
1258 -2 1257 -420 0 -420 0 0 -1630z"/>
<path d="M18645 9118 c-282 -773 -309 -848 -670 -1833 -125 -341 -233 -637
-241 -657 l-13 -38 432 0 432 0 95 260 94 260 690 -2 691 -3 94 -257 94 -258
428 0 c236 0 429 4 429 8 0 5 -174 483 -386 1063 -212 580 -403 1101 -424
1159 -126 350 -353 969 -365 997 l-14 33 -549 0 -549 0 -268 -732z m1029 -698
l203 -555 -410 -3 c-226 -1 -411 -1 -413 1 -2 1 89 255 201 562 113 308 205
562 206 565 1 8 -1 14 213 -570z"/>
<path d="M22587 9844 c-4 -4 -7 -738 -7 -1631 l0 -1623 425 0 425 0 0 420 0
420 388 0 389 0 299 -420 299 -420 498 0 c273 0 497 2 497 5 0 3 -144 208
-320 455 -176 247 -320 453 -320 458 0 4 24 18 53 30 28 12 86 44 127 70 241
155 408 414 481 745 29 132 37 391 15 513 -45 262 -164 493 -339 661 -167 159
-359 254 -610 300 -82 15 -209 17 -1192 20 -606 2 -1104 1 -1108 -3z m2081
-744 c135 -15 231 -68 296 -163 74 -108 107 -274 82 -416 -28 -161 -108 -276
-224 -323 l-57 -23 -667 -3 -668 -3 0 464 c0 255 3 467 7 470 10 11 1138 8
1231 -3z"/>
<path d="M27360 8220 l0 -1630 425 0 425 0 0 1630 0 1630 -425 0 -425 0 0
-1630z"/>
<path d="M30052 5519 c-171 -25 -329 -104 -453 -228 -72 -71 -94 -102 -133
-181 -54 -111 -76 -201 -76 -322 0 -292 165 -546 437 -669 119 -55 220 -73
393 -73 173 0 274 18 393 73 196 88 346 255 409 455 28 87 35 269 14 366 -39
182 -151 344 -314 451 -175 115 -425 163 -670 128z m356 -265 c94 -21 163 -58
220 -117 87 -93 122 -192 122 -352 0 -157 -35 -258 -118 -347 -90 -96 -219
-140 -412 -140 -353 0 -530 164 -530 490 0 97 19 192 51 253 26 51 92 125 141
155 119 75 341 100 526 58z"/>
<path d="M32245 5523 c-90 -11 -189 -39 -262 -74 -104 -50 -173 -115 -216
-206 -30 -65 -32 -74 -32 -188 0 -111 2 -124 27 -172 82 -155 215 -208 563
-224 228 -10 286 -18 353 -50 105 -51 111 -185 10 -247 -95 -59 -353 -75 -523
-34 -105 26 -252 74 -346 112 l-66 27 -56 -113 c-31 -63 -57 -118 -57 -123 0
-26 323 -135 495 -167 138 -26 379 -26 490 -1 181 42 318 136 376 260 30 65
31 72 27 170 -3 88 -7 110 -33 162 -55 114 -171 201 -320 240 -38 10 -137 20
-265 25 -307 13 -389 39 -406 126 -25 137 164 237 416 220 110 -7 236 -33 355
-74 l84 -29 32 76 c17 42 40 96 50 120 11 24 18 45 16 47 -11 11 -124 55 -187
73 -151 42 -385 62 -525 44z"/>
<path d="M3850 4785 l0 -725 610 0 610 0 0 125 0 125 -465 0 -465 0 0 190 0
190 360 0 360 0 0 125 0 125 -360 0 -360 0 2 163 3 162 453 3 452 2 0 120 0
120 -600 0 -600 0 0 -725z"/>
<path d="M5750 4785 l0 -725 135 0 135 0 2 426 3 425 202 -423 202 -423 162 0
161 0 202 421 201 422 3 -424 2 -424 135 0 135 0 0 725 0 726 -136 -3 -136 -3
-281 -582 c-154 -321 -283 -583 -286 -583 -4 0 -133 262 -287 583 l-280 582
-137 3 -137 3 0 -726z"/>
<path d="M8180 4785 l0 -725 145 0 145 0 0 229 0 230 358 3 c401 5 412 6 520
79 141 93 225 315 193 506 -26 150 -122 288 -241 346 -108 53 -154 57 -657 57
l-463 0 0 -725z m958 461 c81 -35 142 -142 142 -249 0 -97 -77 -207 -157 -224
-21 -4 -175 -8 -343 -8 l-305 0 -3 240 c-1 132 0 246 3 253 4 11 62 13 312 10
272 -3 313 -6 351 -22z"/>
<path d="M10210 4785 l0 -725 145 0 145 0 0 230 0 230 208 0 207 0 164 -230
164 -230 169 0 c133 0 168 3 162 13 -4 6 -79 112 -167 235 -87 123 -157 225
-155 226 1 2 33 17 71 34 285 131 348 588 111 812 -30 28 -78 62 -108 76 -109
50 -155 54 -653 54 l-463 0 0 -725z m961 463 c137 -63 183 -276 88 -409 -11
-16 -39 -39 -62 -52 -41 -21 -50 -22 -367 -22 l-325 0 -3 240 c-1 132 0 246 3
253 8 22 616 12 666 -10z"/>
<path d="M12270 4785 l0 -725 610 0 610 0 0 125 0 125 -465 0 -465 0 0 190 0
190 360 0 360 0 0 125 0 125 -360 0 -360 0 2 163 3 162 448 3 447 2 0 120 0
120 -595 0 -595 0 0 -725z"/>
<path d="M14170 4785 l0 -725 605 0 605 0 0 125 0 125 -460 0 -460 0 0 190 0
190 360 0 360 0 0 125 0 125 -360 0 -360 0 0 165 0 165 450 0 450 0 0 120 0
120 -595 0 -595 0 0 -725z"/>
<path d="M16060 4785 l0 -725 135 0 135 0 2 511 3 512 405 -509 406 -509 137
-3 137 -3 0 726 0 725 -135 0 -135 0 -2 -502 -3 -502 -140 175 c-77 96 -259
321 -404 502 l-263 327 -139 0 -139 0 0 -725z"/>
<path d="M18170 4785 l0 -726 443 4 c383 3 450 6 501 21 207 61 335 200 398
431 18 69 21 107 21 270 0 163 -3 201 -21 270 -61 223 -175 354 -369 422 l-78
28 -447 3 -448 3 0 -726z m892 452 c127 -62 176 -209 165 -502 -9 -253 -60
-365 -188 -410 -33 -12 -99 -15 -310 -15 l-269 0 0 473 c0 261 3 477 8 481 4
5 126 6 272 4 l265 -3 57 -28z"/>
<path d="M20240 4785 l0 -725 145 0 145 0 0 725 0 725 -145 0 -145 0 0 -725z"/>
<path d="M21280 4785 l0 -725 135 0 135 0 2 425 3 426 202 -423 201 -423 162
0 162 0 202 422 201 422 3 -425 2 -424 135 0 135 0 0 725 0 726 -136 -3 -137
-3 -280 -582 c-154 -321 -283 -583 -287 -583 -3 0 -132 262 -287 583 l-280
582 -136 3 -137 3 0 -726z"/>
<path d="M23712 4788 l3 -723 608 -3 607 -2 0 125 0 125 -465 0 -465 0 0 190
0 190 365 0 365 0 0 125 0 125 -365 0 -365 0 2 163 3 162 453 3 452 2 0 120 0
120 -600 0 -600 0 2 -722z"/>
<path d="M25610 4785 l0 -725 135 0 135 0 2 509 3 510 405 -509 405 -510 138
0 137 0 0 725 0 725 -135 0 -135 0 -2 -503 -3 -504 -405 504 -405 503 -137 0
-138 0 0 -725z"/>
<path d="M27600 5390 l0 -120 248 -2 247 -3 3 -602 2 -603 145 0 145 0 0 605
0 605 245 0 245 0 0 120 0 120 -640 0 -640 0 0 -120z"/>
</g>
</svg>
