<?xml version="1.0" encoding="UTF-8" standalone="no"?> <svg id="Layer_1" data-name="Layer 1" xmlns="http://www.w3.org/2000/svg" viewBox="0 0 24 24"><title>menu</title><path d="M9,11.55H4.52A2.52,2.52,0,0,1,2,9V4.52A2.52,2.52,0,0,1,4.52,2H9a2.52,2.52,0,0,1,2.52,2.52V9A2.52,2.52,0,0,1,9,11.55ZM4.52,4A.52.52,0,0,0,4,4.52V9a.52.52,0,0,0,.52.52H9A.52.52,0,0,0,9.55,9V4.52A.52.52,0,0,0,9,4Z"/><path d="M19.48,11.55H15A2.52,2.52,0,0,1,12.45,9V4.52A2.52,2.52,0,0,1,15,2h4.51A2.52,2.52,0,0,1,22,4.52V9A2.52,2.52,0,0,1,19.48,11.55ZM15,4a.52.52,0,0,0-.52.52V9a.52.52,0,0,0,.52.52h4.51A.52.52,0,0,0,20,9V4.52A.52.52,0,0,0,19.48,4Z"/><path d="M9,22H4.52A2.52,2.52,0,0,1,2,19.48V15a2.52,2.52,0,0,1,2.52-2.52H9A2.52,2.52,0,0,1,11.55,15v4.51A2.52,2.52,0,0,1,9,22ZM4.52,14.45A.52.52,0,0,0,4,15v4.51a.52.52,0,0,0,.52.52H9a.52.52,0,0,0,.52-.52V15A.52.52,0,0,0,9,14.45Z"/><path d="M19.48,22H15a2.52,2.52,0,0,1-2.52-2.52V15A2.52,2.52,0,0,1,15,12.45h4.51A2.52,2.52,0,0,1,22,15v4.51A2.52,2.52,0,0,1,19.48,22ZM15,14.45a.52.52,0,0,0-.52.52v4.51A.52.52,0,0,0,15,20h4.51a.52.52,0,0,0,.52-.52V15a.52.52,0,0,0-.52-.52Z"/></svg>